<svg width="4" height="16" viewBox="0 0 4 16" fill="none" xmlns="http://www.w3.org/2000/svg">
<path d="M1.99999 8.8335C2.46023 8.8335 2.83332 8.4604 2.83332 8.00016C2.83332 7.53993 2.46023 7.16683 1.99999 7.16683C1.53975 7.16683 1.16666 7.53993 1.16666 8.00016C1.16666 8.4604 1.53975 8.8335 1.99999 8.8335Z" stroke="#1A1A1E" stroke-width="1.5" stroke-linecap="round" stroke-linejoin="round"/>
<path d="M1.99999 3.00016C2.46023 3.00016 2.83332 2.62707 2.83332 2.16683C2.83332 1.70659 2.46023 1.3335 1.99999 1.3335C1.53975 1.3335 1.16666 1.70659 1.16666 2.16683C1.16666 2.62707 1.53975 3.00016 1.99999 3.00016Z" stroke="#1A1A1E" stroke-width="1.5" stroke-linecap="round" stroke-linejoin="round"/>
<path d="M1.99999 14.6668C2.46023 14.6668 2.83332 14.2937 2.83332 13.8335C2.83332 13.3733 2.46023 13.0002 1.99999 13.0002C1.53975 13.0002 1.16666 13.3733 1.16666 13.8335C1.16666 14.2937 1.53975 14.6668 1.99999 14.6668Z" stroke="#1A1A1E" stroke-width="1.5" stroke-linecap="round" stroke-linejoin="round"/>
</svg>
